<?xml version="1.0" encoding="UTF-8"?>
<svg xmlns="http://www.w3.org/2000/svg" xmlns:xlink="http://www.w3.org/1999/xlink" width="180px" height="20px" viewBox="0 0 177 20" version="1.1">
<g id="surface1">
<path style=" stroke:none;fill-rule:nonzero;fill:rgb(8.235294%,36.470588%,96.470588%);fill-opacity:1;" d="M 155.65625 2.957031 C 159.433594 6.878906 159.433594 13.101562 155.65625 17.023438 C 153.847656 18.925781 151.339844 20 148.722656 20 C 146.101562 20 143.597656 18.925781 141.785156 17.023438 C 139.964844 15.140625 138.949219 12.617188 138.953125 9.992188 C 138.953125 4.542969 143.308594 0 148.722656 0 C 151.335938 0.0078125 153.839844 1.070312 155.65625 2.957031 Z M 143.429688 9.988281 C 143.425781 11.460938 143.992188 12.875 145.011719 13.9375 C 145.980469 14.953125 147.320312 15.527344 148.722656 15.527344 C 150.125 15.527344 151.464844 14.953125 152.433594 13.9375 C 154.539062 11.730469 154.539062 8.25 152.433594 6.042969 C 151.464844 5.027344 150.125 4.453125 148.722656 4.449219 C 145.824219 4.449219 143.429688 6.859375 143.429688 9.988281 Z M 143.429688 9.988281 "/>
<path style=" stroke:none;fill-rule:nonzero;fill:rgb(8.235294%,36.470588%,96.470588%);fill-opacity:1;" d="M 22.125 0 L 13.417969 20 L 8.914062 20 L 0.210938 0 L 5.09375 0 L 11.171875 13.804688 L 17.242188 0 Z M 22.125 0 "/>
<path style=" stroke:none;fill-rule:nonzero;fill:rgb(8.235294%,36.470588%,96.470588%);fill-opacity:1;" d="M 31.402344 0 L 31.402344 4.480469 L 29.285156 4.480469 L 29.285156 15.496094 L 31.402344 15.496094 L 31.402344 20 L 22.699219 20 L 22.699219 15.496094 L 24.820312 15.496094 L 24.820312 4.480469 L 22.703125 4.480469 L 22.703125 0 Z M 31.402344 0 "/>
<path style=" stroke:none;fill-rule:nonzero;fill:rgb(8.235294%,36.470588%,96.470588%);fill-opacity:1;" d="M 36.640625 13.355469 L 36.640625 20 L 32.175781 20 L 32.175781 0 L 57.253906 0 C 59.226562 0 60.988281 0.894531 62.0625 2.199219 C 63.136719 3.5 63.605469 5.109375 63.605469 6.675781 C 63.605469 8.246094 63.140625 9.855469 62.0625 11.15625 C 61.65625 11.648438 61.167969 12.070312 60.625 12.402344 C 61.09375 13.097656 61.515625 13.828125 61.882812 14.585938 C 62.53125 15.871094 63.035156 17.148438 63.445312 18.179688 C 63.71875 18.859375 63.996094 19.683594 64.140625 19.996094 L 59.265625 19.996094 C 58.859375 18.984375 58.40625 17.625 57.890625 16.59375 C 57.363281 15.539062 56.761719 14.597656 56.21875 14.042969 C 55.675781 13.488281 55.34375 13.355469 55 13.355469 Z M 57.253906 8.875 C 58.027344 8.875 58.328125 8.660156 58.621094 8.300781 C 58.917969 7.941406 59.140625 7.328125 59.136719 6.683594 C 59.136719 6.035156 58.921875 5.421875 58.621094 5.066406 C 58.316406 4.707031 58.023438 4.488281 57.25 4.488281 L 36.640625 4.488281 L 36.640625 8.875 Z M 57.253906 8.875 "/>
<path style=" stroke:none;fill-rule:nonzero;fill:rgb(8.235294%,36.470588%,96.470588%);fill-opacity:1;" d="M 80.0625 0 L 80.0625 4.480469 L 74.164062 4.480469 L 74.164062 20 L 69.695312 20 L 69.695312 4.480469 L 63.796875 4.480469 L 63.796875 0 Z M 80.0625 0 "/>
<path style=" stroke:none;fill-rule:nonzero;fill:rgb(8.235294%,36.470588%,96.470588%);fill-opacity:1;" d="M 121.480469 0 L 121.480469 11.238281 C 121.480469 12.714844 121.078125 13.773438 120.210938 14.582031 C 119.507812 15.238281 118.503906 15.625 117.460938 15.648438 L 89.273438 15.648438 C 88.191406 15.648438 87.15625 15.257812 86.429688 14.582031 C 85.5625 13.777344 85.160156 12.714844 85.160156 11.238281 L 85.160156 0 L 80.835938 0 L 80.835938 11.238281 C 80.835938 13.816406 81.804688 16.191406 83.488281 17.761719 C 85.066406 19.214844 87.132812 20.011719 89.273438 19.996094 L 117.460938 19.996094 C 119.570312 19.988281 121.601562 19.191406 123.15625 17.761719 C 124.839844 16.191406 125.808594 13.8125 125.808594 11.238281 L 125.808594 0 Z M 121.480469 0 "/>
<path style=" stroke:none;fill-rule:nonzero;fill:rgb(8.235294%,36.470588%,96.470588%);fill-opacity:1;" d="M 131.054688 0 L 131.054688 15.5 L 139.144531 15.5 L 139.144531 20 L 126.585938 20 L 126.585938 0 Z M 131.054688 0 "/>
<path style=" stroke:none;fill-rule:nonzero;fill:rgb(8.235294%,36.470588%,96.470588%);fill-opacity:1;" d="M 175.804688 2.9375 L 172.621094 6.039062 C 171.046875 4.414062 168.765625 4.007812 166.785156 4.960938 C 164.804688 5.914062 163.558594 8.09375 163.738281 10.441406 C 163.914062 12.789062 165.464844 14.714844 167.550781 15.332031 C 169.640625 15.949219 171.851562 15.171875 173.164062 13.296875 L 176.789062 15.859375 C 174.425781 19.226562 170.210938 20.753906 166.300781 19.601562 C 162.390625 18.449219 159.632812 14.902344 159.316406 10.78125 C 159 6.65625 161.191406 2.726562 164.863281 0.953125 C 166.097656 0.347656 167.445312 0.0234375 168.820312 0 C 171.453125 -0.0234375 173.976562 1.039062 175.804688 2.9375 Z M 175.804688 2.9375 "/>
</g>
</svg>
